<?xml version="1.0" encoding="UTF-8" standalone="no"?>
<!DOCTYPE svg PUBLIC "-//W3C//DTD SVG 1.1//EN" "http://www.w3.org/Graphics/SVG/1.1/DTD/svg11.dtd">
<svg width="100%" height="100%" viewBox="0 0 397 397" version="1.1" xmlns="http://www.w3.org/2000/svg" xmlns:xlink="http://www.w3.org/1999/xlink" xml:space="preserve" xmlns:serif="http://www.serif.com/" style="fill-rule:evenodd;clip-rule:evenodd;stroke-linejoin:round;stroke-miterlimit:1.41421;"><path d="M397,198.5c0,109.628 -88.87,198.5 -198.5,198.5c-109.629,0 -198.5,-88.872 -198.5,-198.5c0,-109.628 88.871,-198.5 198.5,-198.5c109.63,0 198.5,88.872 198.5,198.5Zm-242.773,140.631c4.661,0 8.415,-3.754 8.415,-8.414l0,-263.62c0,-4.664 -3.754,-8.414 -8.415,-8.414l-55.739,0c-4.66,0 -8.414,3.75 -8.414,8.414l0,263.62c0,4.66 3.754,8.414 8.414,8.414l55.739,0Zm24.132,-232.343l0,-36.243c0,-8.921 8.982,-15.562 17.861,-10.343c7.113,4.179 149.289,88.55 161.425,95.765c7.968,4.738 7.832,16.043 0,20.789c-8.739,5.293 -151.457,90.09 -161.793,95.98c-7.566,4.321 -17.493,-0.452 -17.493,-10.28l0,-36.293c0,-34.294 59.357,-44.114 68.09,-49.407c7.836,-4.746 7.97,-16.051 0,-20.789c-12.133,-7.215 -68.09,-14.98 -68.09,-49.179Z" style="fill:#fff;"/></svg>